<svg xmlns="http://www.w3.org/2000/svg" xmlns:xlink="http://www.w3.org/1999/xlink" width="500" zoomAndPan="magnify" viewBox="0 0 375 374.999991" height="500" preserveAspectRatio="xMidYMid meet" version="1.0"><defs><g/></defs><g fill="#000000" fill-opacity="1"><g transform="translate(77.511503, 275.400685)"><g><path d="M 10.097656 -175.613281 C 7.902344 -175.613281 6.585938 -174.296875 6.585938 -172.101562 L 6.585938 -150.148438 C 6.585938 -147.953125 7.902344 -146.636719 10.097656 -146.636719 L 35.5625 -146.636719 L 35.5625 -3.511719 C 35.5625 -1.097656 36.878906 0 39.074219 0 L 61.902344 0 C 64.320312 0 65.417969 -1.097656 65.417969 -3.511719 L 65.417969 -146.636719 L 90.878906 -146.636719 C 93.296875 -146.636719 94.390625 -147.953125 94.390625 -150.148438 L 94.390625 -172.101562 C 94.390625 -174.296875 93.296875 -175.613281 90.878906 -175.613281 Z M 10.097656 -175.613281 "/></g></g></g><g fill="#ff1616" fill-opacity="1"><g transform="translate(182.874778, 275.400685)"><g><path d="M 99.003906 -144.003906 C 99.003906 -164.636719 87.808594 -175.613281 67.171875 -175.613281 L 41.707031 -175.613281 C 21.730469 -175.613281 10.976562 -165.515625 10.976562 -146.636719 L 10.976562 -137.636719 C 10.976562 -134.785156 12.511719 -133.246094 15.367188 -133.246094 L 36.441406 -133.246094 C 39.292969 -133.246094 40.832031 -134.785156 40.832031 -137.636719 L 40.832031 -146.636719 L 65.417969 -146.636719 C 68.269531 -146.636719 69.804688 -145.101562 69.804688 -142.246094 L 69.804688 -110.855469 C 69.804688 -105.367188 66.734375 -102.296875 61.027344 -102.296875 L 35.121094 -102.296875 C 32.269531 -102.296875 30.734375 -100.757812 30.734375 -97.90625 L 30.734375 -77.710938 C 30.734375 -74.855469 32.269531 -73.320312 35.121094 -73.320312 L 61.027344 -73.320312 C 66.953125 -73.320312 69.804688 -70.246094 69.804688 -64.539062 L 69.804688 -33.367188 C 69.804688 -30.511719 68.269531 -28.976562 65.417969 -28.976562 L 40.832031 -28.976562 L 40.832031 -37.976562 C 40.832031 -40.832031 39.292969 -42.367188 36.441406 -42.367188 L 15.367188 -42.367188 C 12.511719 -42.367188 10.976562 -40.832031 10.976562 -37.976562 L 10.976562 -30.734375 C 10.976562 -10.757812 21.730469 0 41.707031 0 L 67.171875 0 C 87.808594 0 99.003906 -10.976562 99.003906 -31.609375 L 99.003906 -72 C 99.003906 -80.125 93.074219 -86.269531 85.171875 -87.585938 L 85.171875 -88.027344 C 93.074219 -89.34375 99.003906 -95.488281 99.003906 -103.613281 Z M 99.003906 -144.003906 "/></g></g></g></svg>